#N canvas -8 -8 1366 685 10;
#X floatatom 847 40 5 0 0 0 - - -;
#X floatatom 884 40 5 0 0 0 - - -;
#X floatatom 922 40 5 0 0 0 - - -;
#X obj 836 87 pack f f f;
#X obj 17 369 hsl 128 15 0.01 30 1 0 empty empty lfo_speed -2 -8 0
10 -262144 -1 -1 6205 1;
#X floatatom 18 394 5 0 0 0 - - -;
#X obj 158 372 hsl 128 15 1 50 1 0 empty empty filter_Q -2 -8 0 10
-262144 -1 -1 0 1;
#X floatatom 155 392 5 0 0 0 - - -;
#X obj 18 416 s lfo_speed;
#X obj 155 414 s filter_Q;
#X text 83 335 sawfilter controls;
#X obj 1025 343 vcf~;
#X obj 763 508 hsl 128 15 0 127 0 0 empty empty center_frequency -2
-8 0 10 -262144 -1 -1 0 1;
#X obj 760 548 mtof~;
#X obj 759 622 +~;
#X floatatom 934 527 5 0 1000 0 - - -;
#X obj 773 576 osc~;
#X obj 773 599 *~;
#X floatatom 1046 568 5 0 0 0 modulation_amount - -;
#X floatatom 1145 325 5 0 0 0 - - -;
#X obj 1205 316 hsl 150 15 0 10 0 0 empty empty Resonance -2 -8 0 10
-262144 -1 -1 0 1;
#X obj 937 507 hsl 50 15 0 1000 0 0 empty empty modulation_frequency
-2 -8 0 10 -262144 -1 -1 0 1;
#X obj 8 32 tgl 15 0 empty empty empty 17 7 0 10 -262144 -1 -1 0 1
;
#X floatatom 8 98 5 0 0 0 - - -;
#X obj 128 61 bng 15 250 50 0 empty empty empty 17 7 0 10 -262144 -1
-1;
#X obj 147 61 bng 15 250 50 0 empty empty empty 17 7 0 10 -262144 -1
-1;
#X obj 164 61 bng 15 250 50 0 empty empty empty 17 7 0 10 -262144 -1
-1;
#X obj 182 61 bng 15 250 50 0 empty empty empty 17 7 0 10 -262144 -1
-1;
#X obj 202 62 bng 15 250 50 0 empty empty empty 17 7 0 10 -262144 -1
-1;
#X obj 221 62 bng 15 250 50 0 empty empty empty 17 7 0 10 -262144 -1
-1;
#X obj 239 62 bng 15 250 50 0 empty empty empty 17 7 0 10 -262144 -1
-1;
#X obj 129 41 select 0 1 2 3 4 5 6;
#X msg 834 2 stop;
#X obj 360 25 until;
#X obj 420 13 counter 0 127;
#X msg 360 5 128;
#X obj 19 126 t f b;
#X msg 427 33 \$1 0;
#X obj 8 77 random 7;
#X obj 780 136 sawfilterj~;
#X obj 810 159 sinej~;
#X obj 884 161 sinej~;
#X obj 956 163 sinej~;
#X obj 1016 161 sinej~;
#X obj 1088 161 sinej~;
#X obj 1094 209 sinej~;
#X obj 1018 208 sinej~;
#X obj 958 209 sinej~;
#X obj 892 209 sinej~;
#X obj 821 207 sinej~;
#X obj 862 139 sawfilterj~;
#X obj 934 140 sawfilterj~;
#X obj 1003 140 sawfilterj~;
#X obj 1071 139 sawfilterj~;
#X obj 802 183 sawfilterj~;
#X obj 872 185 sawfilterj~;
#X obj 1082 187 sawfilterj~;
#X obj 1013 185 sawfilterj~;
#X obj 943 185 sawfilterj~;
#X msg 128 81 16 80 \, 28 127 \, 36 100 \, 43 75 \, 48 100 \, 67 90
;
#X text 100 80 C/E;
#X msg 128 105 24 90 \, 31 127 \, 38 100 \, 40 100 \, 55 90 \, 59 75
;
#X text 98 103 CM7;
#X msg 128 128 29 127 \, 43 90 \, 48 100 \, 52 90 \, 60 75 \, 67 75
;
#X text 99 127 C/F;
#X msg 129 152 26 115 \, 38 100 \, 43 127 \, 48 75 \, 52 120 \, 64
75;
#X text 99 151 C/D;
#X msg 130 178 22 127 \, 34 127 \, 43 80 \, 48 100 \, 52 75 \, 55 90
;
#X text 94 178 C/Bb;
#X text 85 200 C/E v2;
#X text 85 225 CM7 v2;
#X msg 129 201 16 127 \, 28 110 \, 36 80 \, 31 80 \, 43 115 \, 60 100
;
#X msg 129 226 24 120 \, 31 120 \, 38 120 \, 40 115 \, 55 60 \, 71
100;
#X obj 1146 139 sawfilterj~;
#X obj 1160 160 sinej~;
#X obj 1156 187 sawfilterj~;
#X obj 1160 207 sinej~;
#X obj 836 106 route 1 2 3 4 5 6 7 8 9 10 11 12;
#X obj 891 277 rev1~;
#X floatatom 800 280 5 0 0 0 - - -;
#X obj 1148 284 loadbang;
#X obj 759 446 loadbang;
#X msg 1149 305 0.5;
#X floatatom 760 528 5 0 0 0 - - -;
#X msg 760 475 50;
#X obj 966 450 loadbang;
#X msg 966 471 500;
#X obj 1046 520 loadbang;
#X msg 1046 541 200;
#X obj 8 54 metro 10000, f 12;
#X obj 808 238 loadbang;
#X obj 77 22 varalea 10000 10000 15000;
#X obj 77 2 loadbang;
#X obj 801 476 varalea 5000 50 127;
#X obj 872 397 varalea 2500 0 1000;
#X obj 1223 282 varalea 2500 0 2;
#X obj 1000 618 varalea 5000 0 200;
#X obj 866 22 poly 12;
#X msg 431 251 22 127;
#X text 420 162 BASS NOTES;
#X obj 524 269 mtof;
#X obj 524 291 osc~;
#X obj 653 168 tgl 15 0 empty empty empty 17 7 0 10 -262144 -1 -1 0
1;
#X text 647 150 stop;
#X msg 430 185 24 127;
#X msg 430 204 19 127;
#X msg 429 226 26 127;
#X text 5 19 start/stop;
#X obj 1075 394 rev1~;
#X obj 1129 353 loadbang;
#X msg 1129 374 70;
#X floatatom 1129 395 5 0 0 0 - - -;
#X obj 3 2 inlet start;
#X obj 645 123 inlet stop;
#X obj 1174 517 outlet~ gain;
#X obj 32 465 r FSR1;
#X obj 168 465 r FSR2;
#X floatatom 32 486 5 0 0 0 - - -;
#X floatatom 168 486 5 0 0 0 - - -;
#X obj 768 381 r FSR4;
#X floatatom 768 402 5 0 0 0 - - -;
#X floatatom 1223 231 5 0 0 0 - - -;
#X obj 1143 556 r FSR3;
#X floatatom 1143 577 5 0 0 0 - - -;
#X obj 168 506 scale 0 255 0 10;
#X obj 768 422 scale 0 255 0 1000;
#X obj 601 430 scale 0 255 0 127;
#X obj 1143 597 scale 0 255 0 200;
#X obj 1223 251 scale 0 255 0 5;
#X obj 32 505 scale 0 255 0.5 30;
#X obj 629 373 r FSR1;
#X floatatom 629 394 5 0 0 0 - - -;
#X obj 906 243 *~ 1;
#X obj 1207 427 lfo~ 0.1 250 2500;
#X floatatom 1207 405 5 0 0 0 - - -;
#X obj 1208 383 r lfo_speed;
#X obj 1294 373 r filter_Q;
#X floatatom 1294 396 5 0 0 0 - - -;
#X msg 808 259 90;
#X obj 411 386 noise~;
#X obj 471 456 *~ 0.05;
#X obj 416 410 lop~ 100;
#X obj 469 336 r FSR4;
#X floatatom 469 357 5 0 0 0 - - -;
#X obj 469 377 scale 0 255 0 500;
#X obj 1223 210 r FSR3;
#X obj 24 175 metro;
#X obj 24 196 random 4;
#X floatatom 24 217 5 0 0 0 - - -;
#X obj 24 237 t f b;
#X obj 296 283 until;
#X obj 356 271 counter 0 127;
#X msg 296 263 128;
#X msg 363 291 \$1 0;
#X obj 24 258 select 0 1 2 3;
#X obj 21 280 bng 15 250 50 0 empty empty empty 17 7 0 10 -262144 -1
-1;
#X obj 43 280 bng 15 250 50 0 empty empty empty 17 7 0 10 -262144 -1
-1;
#X obj 64 282 bng 15 250 50 0 empty empty empty 17 7 0 10 -262144 -1
-1;
#X obj 85 281 bng 15 250 50 0 empty empty empty 17 7 0 10 -262144 -1
-1;
#X obj 641 312 *~ 0.7;
#X obj 54 149 / 1.5;
#X connect 0 0 3 0;
#X connect 1 0 3 1;
#X connect 2 0 3 2;
#X connect 3 0 77 0;
#X connect 4 0 5 0;
#X connect 5 0 8 0;
#X connect 6 0 7 0;
#X connect 7 0 9 0;
#X connect 11 0 108 0;
#X connect 12 0 83 0;
#X connect 13 0 14 0;
#X connect 14 0 11 1;
#X connect 15 0 16 0;
#X connect 16 0 17 0;
#X connect 17 0 14 1;
#X connect 19 0 11 2;
#X connect 20 0 19 0;
#X connect 21 0 15 0;
#X connect 23 0 36 0;
#X connect 24 0 59 0;
#X connect 25 0 61 0;
#X connect 26 0 63 0;
#X connect 27 0 65 0;
#X connect 28 0 67 0;
#X connect 29 0 71 0;
#X connect 30 0 72 0;
#X connect 31 0 24 0;
#X connect 31 1 25 0;
#X connect 31 2 26 0;
#X connect 31 3 27 0;
#X connect 31 4 28 0;
#X connect 31 5 29 0;
#X connect 31 6 30 0;
#X connect 32 0 97 0;
#X connect 33 0 34 0;
#X connect 34 0 37 0;
#X connect 35 0 33 0;
#X connect 36 0 31 0;
#X connect 36 1 35 0;
#X connect 37 0 97 0;
#X connect 38 0 23 0;
#X connect 39 0 132 0;
#X connect 40 0 132 0;
#X connect 41 0 132 0;
#X connect 42 0 132 0;
#X connect 43 0 132 0;
#X connect 44 0 132 0;
#X connect 45 0 132 0;
#X connect 46 0 132 0;
#X connect 47 0 132 0;
#X connect 48 0 132 0;
#X connect 50 0 132 0;
#X connect 51 0 132 0;
#X connect 52 0 132 0;
#X connect 53 0 132 0;
#X connect 54 0 132 0;
#X connect 55 0 132 0;
#X connect 56 0 132 0;
#X connect 57 0 132 0;
#X connect 58 0 132 0;
#X connect 59 0 97 0;
#X connect 61 0 97 0;
#X connect 63 0 97 0;
#X connect 65 0 97 0;
#X connect 67 0 97 0;
#X connect 71 0 97 0;
#X connect 72 0 97 0;
#X connect 73 0 132 0;
#X connect 74 0 132 0;
#X connect 75 0 132 0;
#X connect 76 0 132 0;
#X connect 77 0 39 0;
#X connect 77 0 40 0;
#X connect 77 1 49 0;
#X connect 77 1 54 0;
#X connect 77 2 41 0;
#X connect 77 2 50 0;
#X connect 77 3 48 0;
#X connect 77 3 55 0;
#X connect 77 4 42 0;
#X connect 77 4 51 0;
#X connect 77 5 47 0;
#X connect 77 5 58 0;
#X connect 77 6 43 0;
#X connect 77 6 52 0;
#X connect 77 7 46 0;
#X connect 77 7 57 0;
#X connect 77 8 44 0;
#X connect 77 8 53 0;
#X connect 77 9 45 0;
#X connect 77 9 56 0;
#X connect 77 10 74 0;
#X connect 77 10 73 0;
#X connect 77 11 76 0;
#X connect 77 11 75 0;
#X connect 78 0 11 0;
#X connect 79 0 78 1;
#X connect 80 0 82 0;
#X connect 80 0 95 0;
#X connect 81 0 84 0;
#X connect 81 0 93 0;
#X connect 82 0 19 0;
#X connect 83 0 13 0;
#X connect 85 0 86 0;
#X connect 85 0 94 0;
#X connect 87 0 88 0;
#X connect 87 0 96 0;
#X connect 88 0 18 0;
#X connect 89 0 38 0;
#X connect 90 0 138 0;
#X connect 91 0 89 1;
#X connect 91 0 160 0;
#X connect 92 0 91 0;
#X connect 96 0 18 0;
#X connect 97 0 0 0;
#X connect 97 1 1 0;
#X connect 97 2 2 0;
#X connect 98 0 100 0;
#X connect 100 0 101 0;
#X connect 101 0 159 0;
#X connect 104 0 100 0;
#X connect 105 0 100 0;
#X connect 106 0 100 0;
#X connect 108 0 114 0;
#X connect 109 0 110 0;
#X connect 110 0 111 0;
#X connect 111 0 108 1;
#X connect 112 0 89 0;
#X connect 112 0 146 0;
#X connect 113 0 100 0;
#X connect 113 0 32 0;
#X connect 115 0 117 0;
#X connect 116 0 118 0;
#X connect 117 0 129 0;
#X connect 118 0 124 0;
#X connect 119 0 120 0;
#X connect 120 0 125 0;
#X connect 121 0 128 0;
#X connect 122 0 123 0;
#X connect 123 0 127 0;
#X connect 124 0 6 0;
#X connect 125 0 21 0;
#X connect 126 0 12 0;
#X connect 127 0 17 1;
#X connect 128 0 20 0;
#X connect 129 0 4 0;
#X connect 130 0 131 0;
#X connect 131 0 126 0;
#X connect 132 0 11 0;
#X connect 132 0 78 0;
#X connect 133 0 11 1;
#X connect 134 0 133 0;
#X connect 135 0 134 0;
#X connect 136 0 137 0;
#X connect 137 0 11 2;
#X connect 138 0 79 0;
#X connect 139 0 141 0;
#X connect 140 0 114 0;
#X connect 141 0 140 0;
#X connect 142 0 143 0;
#X connect 143 0 144 0;
#X connect 144 0 141 1;
#X connect 145 0 121 0;
#X connect 146 0 147 0;
#X connect 147 0 148 0;
#X connect 148 0 149 0;
#X connect 149 0 154 0;
#X connect 149 1 152 0;
#X connect 150 0 151 0;
#X connect 151 0 153 0;
#X connect 152 0 150 0;
#X connect 153 0 100 0;
#X connect 154 0 155 0;
#X connect 154 1 156 0;
#X connect 154 2 157 0;
#X connect 154 3 158 0;
#X connect 155 0 104 0;
#X connect 156 0 105 0;
#X connect 157 0 106 0;
#X connect 158 0 98 0;
#X connect 159 0 114 0;
#X connect 160 0 146 1;
