#N canvas 577 0 589 685 10;
#X obj 39 209 dac~;
#X obj 47 39 tgl 15 0 empty empty empty 17 7 0 10 -262144 -1 -1 0 1
;
#X obj 47 60 metro 200;
#X floatatom 98 39 5 0 0 0 - - -;
#X obj 113 145 hsl 128 15 0 1 0 0 empty empty empty -2 -8 0 10 -262144
-1 -1 0 1;
#X msg 110 162 \$1 25;
#X obj 47 184 *~ 0.5;
#X msg 127 309 devices;
#X msg 127 328 open 3;
#X msg 127 347 close;
#X obj 197 385 mrpeach/slipdec;
#X obj 197 407 unpack f f;
#X obj 197 430 << 8;
#X obj 197 451 |;
#X floatatom 194 579 5 0 0 0 - - -;
#X obj 202 279 hsl 128 15 0 127 0 0 empty empty empty -2 -8 0 10 -262144
-1 -1 0 1;
#X obj 199 302 int;
#X obj 199 342 mrpeach/slipenc;
#X obj 131 248 speedlim 50;
#X obj 197 472 sig~;
#X obj 196 491 hip~ 8;
#X obj 196 512 snapshot~;
#X obj 129 471 tgl 15 0 empty empty empty 17 7 0 10 -262144 -1 -1 0
1;
#X obj 194 536 abs;
#X obj 127 491 metro 100;
#X obj 194 557 > 12;
#X floatatom 230 538 5 0 0 0 - - -;
#N canvas -46 117 1247 327 arrays 0;
#N canvas 0 50 450 250 (subpatch) 0;
#X array src1 13363 float 2;
#X coords 0 1 13363 -1 100 70 1 0 0;
#X restore 187 92 graph;
#X obj 189 62 soundfiler;
#X obj 189 15 loadbang;
#N canvas 0 50 450 250 (subpatch) 0;
#X array src2 14695 float 2;
#X coords 0 1 14695 -1 100 70 1 0 0;
#X restore 348 93 graph;
#X obj 350 63 soundfiler;
#X obj 350 16 loadbang;
#X msg 350 39 read -resize bd2.wav src2;
#X msg 189 40 read -resize bd1.wav src1;
#N canvas 0 50 450 250 (subpatch) 0;
#X array src3 18995 float 2;
#X coords 0 1 18995 -1 100 70 1 0 0;
#X restore 511 91 graph;
#X obj 513 61 soundfiler;
#X obj 513 14 loadbang;
#X msg 513 39 read -resize clac.wav src3;
#N canvas 0 50 450 250 (subpatch) 0;
#X array src4 21827 float 2;
#X coords 0 1 21827 -1 100 70 1 0 0;
#X restore 679 91 graph;
#X obj 681 61 soundfiler;
#X obj 681 14 loadbang;
#X msg 681 39 read -resize ting1.wav src4;
#N canvas 0 50 450 250 (subpatch) 0;
#X array src5 30105 float 2;
#X coords 0 1 30105 -1 100 70 1 0 0;
#X restore 851 90 graph;
#X obj 853 60 soundfiler;
#X obj 853 13 loadbang;
#N canvas 0 50 450 250 (subpatch) 0;
#X array src6 15053 float 2;
#X coords 0 1 15053 -1 100 70 1 0 0;
#X restore 1024 90 graph;
#X obj 1026 60 soundfiler;
#X obj 1026 13 loadbang;
#N canvas 0 50 450 250 (subpatch) 0;
#X array src7 27136 float 2;
#X coords 0 1 27136 -1 100 70 1 0 0;
#X restore 16 252 graph;
#X obj 18 222 soundfiler;
#X obj 18 175 loadbang;
#N canvas 0 50 450 250 (subpatch) 0;
#X array src8 30858 float 2;
#X coords 0 1 30858 -1 100 70 1 0 0;
#X restore 187 248 graph;
#X obj 189 218 soundfiler;
#X obj 189 171 loadbang;
#N canvas 0 50 450 250 (subpatch) 0;
#X array src9 4660 float 2;
#X coords 0 1 4660 -1 100 70 1 0 0;
#X restore 347 248 graph;
#X obj 349 218 soundfiler;
#X obj 349 171 loadbang;
#N canvas 0 50 450 250 (subpatch) 0;
#X array src10 3635 float 2;
#X coords 0 1 3635 -1 100 70 1 0 0;
#X restore 519 250 graph;
#X obj 521 220 soundfiler;
#X obj 521 173 loadbang;
#N canvas 0 50 450 250 (subpatch) 0;
#X array src11 5325 float 2;
#X coords 0 1 5325 -1 100 70 1 0 0;
#X restore 698 249 graph;
#X obj 700 219 soundfiler;
#X obj 700 172 loadbang;
#N canvas 0 50 450 250 (subpatch) 0;
#X array src12 4557 float 2;
#X coords 0 1 4557 -1 100 70 1 0 0;
#X restore 881 249 graph;
#X obj 883 219 soundfiler;
#X obj 883 172 loadbang;
#N canvas 0 50 450 250 (subpatch) 0;
#X array src13 4659 float 2;
#X coords 0 1 4659 -1 100 70 1 0 0;
#X restore 1061 248 graph;
#X obj 1063 218 soundfiler;
#X obj 1063 171 loadbang;
#X msg 853 38 read -resize ting2.wav src5;
#X msg 1026 36 read -resize ting3.wav src6;
#X msg 18 200 read -resize tling.wav src7;
#X msg 189 196 read -resize toc.wav src8;
#X msg 349 196 read -resize xylo1.wav src9;
#X msg 521 196 read -resize xylo2.wav src10;
#X msg 700 197 read -resize xylo3.wav src11;
#X msg 883 197 read -resize xylo4.wav src12;
#X msg 1063 196 read -resize xylo5.wav src13;
#X connect 2 0 7 0;
#X connect 5 0 6 0;
#X connect 6 0 4 0;
#X connect 7 0 1 0;
#X connect 10 0 11 0;
#X connect 11 0 9 0;
#X connect 14 0 15 0;
#X connect 15 0 13 0;
#X connect 18 0 43 0;
#X connect 21 0 44 0;
#X connect 24 0 45 0;
#X connect 27 0 46 0;
#X connect 30 0 47 0;
#X connect 33 0 48 0;
#X connect 36 0 49 0;
#X connect 39 0 50 0;
#X connect 42 0 51 0;
#X connect 43 0 17 0;
#X connect 44 0 20 0;
#X connect 45 0 23 0;
#X connect 46 0 26 0;
#X connect 47 0 29 0;
#X connect 48 0 32 0;
#X connect 49 0 35 0;
#X connect 50 0 38 0;
#X connect 51 0 41 0;
#X restore 125 81 pd arrays;
#N canvas -8 -8 1366 685 tabplays 0;
#X obj 10 21 inlet metro;
#X obj 10 115 bng 15 250 50 0 empty empty empty 17 7 0 10 -262144 -1
-1;
#X obj 89 115 bng 15 250 50 0 empty empty empty 17 7 0 10 -262144 -1
-1;
#X obj 170 117 bng 15 250 50 0 empty empty empty 17 7 0 10 -262144
-1 -1;
#X obj 12 242 vcf~ 6;
#X obj 91 242 vcf~ 6;
#X obj 172 242 vcf~ 6;
#X obj 253 244 vcf~ 6;
#X obj 250 118 bng 15 250 50 0 empty empty empty 17 7 0 10 -262144
-1 -1;
#X obj 11 136 tabplay~ src1;
#X obj 91 136 tabplay~ src2;
#X obj 172 136 tabplay~ src3;
#X obj 252 137 tabplay~ src4;
#X obj 345 242 vcf~ 6;
#X obj 424 242 vcf~ 6;
#X obj 505 242 vcf~ 6;
#X obj 586 244 vcf~ 6;
#X obj 344 136 tabplay~ src5;
#X obj 424 136 tabplay~ src6;
#X obj 505 136 tabplay~ src7;
#X obj 585 137 tabplay~ src8;
#X obj 673 242 vcf~ 6;
#X obj 752 242 vcf~ 6;
#X obj 842 242 vcf~ 6;
#X obj 933 244 vcf~ 6;
#X obj 672 136 tabplay~ src9;
#X obj 752 136 tabplay~ src10;
#X obj 842 136 tabplay~ src11;
#X obj 932 137 tabplay~ src12;
#X obj 1024 244 vcf~ 6;
#X obj 1023 137 tabplay~ src13;
#X obj 348 113 bng 15 250 50 0 empty empty empty 17 7 0 10 -262144
-1 -1;
#X obj 438 112 bng 15 250 50 0 empty empty empty 17 7 0 10 -262144
-1 -1;
#X obj 508 115 bng 15 250 50 0 empty empty empty 17 7 0 10 -262144
-1 -1;
#X obj 588 116 bng 15 250 50 0 empty empty empty 17 7 0 10 -262144
-1 -1;
#X obj 682 112 bng 15 250 50 0 empty empty empty 17 7 0 10 -262144
-1 -1;
#X obj 761 112 bng 15 250 50 0 empty empty empty 17 7 0 10 -262144
-1 -1;
#X obj 842 114 bng 15 250 50 0 empty empty empty 17 7 0 10 -262144
-1 -1;
#X obj 922 115 bng 15 250 50 0 empty empty empty 17 7 0 10 -262144
-1 -1;
#X obj 1026 116 bng 15 250 50 0 empty empty empty 17 7 0 10 -262144
-1 -1;
#X obj 167 92 sel 4 12;
#X obj 247 93 sel 3;
#X obj 345 92 sel 1;
#X obj 679 91 sel 10;
#X obj 839 89 sel 8;
#X obj 919 90 sel 7;
#X obj 505 90 sel 15;
#X obj 1023 91 sel 5;
#X obj 26 187 *~ 20;
#X obj 105 187 *~ 20;
#X obj 266 211 +~ 20000;
#X obj 359 210 +~ 20000;
#X obj 438 210 +~ 20000;
#X obj 520 210 +~ 20000;
#X obj 687 210 +~ 20000;
#X obj 1037 188 *~ 20;
#X obj 598 189 *~ 20;
#X obj 187 187 *~ 500;
#X obj 434 89 sel 6;
#X obj 585 91 sel 2;
#X obj 757 89 sel 14;
#X obj 7 94 sel 0 9;
#X obj 857 209 +~ 10000;
#X obj 1037 211 +~ 5000;
#X obj 656 314 delwrite~ del;
#X obj 86 93 sel 13;
#X obj 20 325 rev1~ 100;
#X obj 857 187 *~ 9000;
#X obj 105 210 +~ 8000;
#X obj 26 211 +~ 8000;
#X obj 267 188 *~ 16000;
#X obj 438 187 *~ 13000;
#X obj 359 187 *~ 18000;
#X obj 766 188 *~ 18000;
#X obj 766 211 +~ 20000;
#X obj 946 211 +~ 18000;
#X obj 947 188 *~ 14000;
#X obj 440 59 random 15;
#X obj 257 60 counter 0 15;
#X obj 187 211 +~ 3000;
#X obj 598 210 +~ 80;
#X obj 687 187 *~ 16000;
#X obj 17 303 delread~ del 100;
#X obj 21 345 bob~ 200 10;
#X obj 519 187 *~ 18000;
#X obj 26 161 osc~ 0.5;
#X obj 599 162 osc~ 0.5;
#X obj 1037 162 osc~ 0.5;
#X obj 105 161 osc~ 0.1;
#X obj 187 161 osc~ 0.2;
#X obj 266 162 osc~ 0.4;
#X obj 359 161 osc~ 0.4;
#X obj 438 161 osc~ 0.3;
#X obj 520 161 osc~ 0.3;
#X obj 687 161 osc~ 0.2;
#X obj 766 161 osc~ 0.4;
#X obj 857 161 osc~ 0.1;
#X obj 946 162 osc~ 0.1;
#X obj 300 484 outlet~ sortie;
#X connect 0 0 78 0;
#X connect 0 0 77 0;
#X connect 1 0 9 0;
#X connect 2 0 10 0;
#X connect 3 0 11 0;
#X connect 4 0 64 0;
#X connect 4 0 98 0;
#X connect 5 0 64 0;
#X connect 5 0 98 0;
#X connect 6 0 64 0;
#X connect 6 0 98 0;
#X connect 7 0 64 0;
#X connect 7 0 98 0;
#X connect 8 0 12 0;
#X connect 9 0 4 0;
#X connect 10 0 5 0;
#X connect 11 0 6 0;
#X connect 12 0 7 0;
#X connect 13 0 64 0;
#X connect 13 0 98 0;
#X connect 14 0 64 0;
#X connect 14 0 98 0;
#X connect 15 0 64 0;
#X connect 15 0 98 0;
#X connect 16 0 64 0;
#X connect 16 0 98 0;
#X connect 17 0 13 0;
#X connect 18 0 14 0;
#X connect 19 0 15 0;
#X connect 20 0 16 0;
#X connect 21 0 64 0;
#X connect 21 0 98 0;
#X connect 22 0 64 0;
#X connect 22 0 98 0;
#X connect 23 0 64 0;
#X connect 23 0 98 0;
#X connect 24 0 64 0;
#X connect 24 0 98 0;
#X connect 25 0 21 0;
#X connect 26 0 22 0;
#X connect 27 0 23 0;
#X connect 28 0 24 0;
#X connect 29 0 64 0;
#X connect 29 0 98 0;
#X connect 30 0 29 0;
#X connect 31 0 17 0;
#X connect 32 0 18 0;
#X connect 33 0 19 0;
#X connect 34 0 20 0;
#X connect 35 0 25 0;
#X connect 36 0 26 0;
#X connect 37 0 27 0;
#X connect 38 0 28 0;
#X connect 39 0 30 0;
#X connect 40 0 3 0;
#X connect 40 1 3 0;
#X connect 41 0 8 0;
#X connect 42 0 31 0;
#X connect 43 0 35 0;
#X connect 44 0 37 0;
#X connect 45 0 38 0;
#X connect 46 0 33 0;
#X connect 47 0 39 0;
#X connect 48 0 69 0;
#X connect 49 0 68 0;
#X connect 50 0 7 1;
#X connect 51 0 13 1;
#X connect 52 0 14 1;
#X connect 53 0 15 1;
#X connect 54 0 21 1;
#X connect 55 0 63 0;
#X connect 56 0 80 0;
#X connect 57 0 79 0;
#X connect 58 0 32 0;
#X connect 59 0 34 0;
#X connect 60 0 36 0;
#X connect 61 0 1 0;
#X connect 61 1 1 0;
#X connect 62 0 23 1;
#X connect 63 0 29 1;
#X connect 65 0 2 0;
#X connect 66 0 83 0;
#X connect 67 0 62 0;
#X connect 68 0 5 1;
#X connect 69 0 4 1;
#X connect 70 0 50 0;
#X connect 71 0 52 0;
#X connect 72 0 51 0;
#X connect 73 0 74 0;
#X connect 74 0 22 1;
#X connect 75 0 24 1;
#X connect 76 0 75 0;
#X connect 77 0 40 0;
#X connect 77 0 41 0;
#X connect 77 0 42 0;
#X connect 77 0 46 0;
#X connect 77 0 43 0;
#X connect 77 0 44 0;
#X connect 77 0 45 0;
#X connect 77 0 47 0;
#X connect 77 0 58 0;
#X connect 77 0 59 0;
#X connect 77 0 60 0;
#X connect 77 0 61 0;
#X connect 77 0 65 0;
#X connect 78 0 61 0;
#X connect 78 0 65 0;
#X connect 78 0 60 0;
#X connect 78 0 59 0;
#X connect 78 0 58 0;
#X connect 78 0 47 0;
#X connect 78 0 46 0;
#X connect 78 0 45 0;
#X connect 78 0 44 0;
#X connect 78 0 43 0;
#X connect 78 0 42 0;
#X connect 78 0 41 0;
#X connect 78 0 40 0;
#X connect 79 0 6 1;
#X connect 80 0 16 1;
#X connect 81 0 54 0;
#X connect 82 0 66 0;
#X connect 83 0 98 0;
#X connect 84 0 53 0;
#X connect 85 0 48 0;
#X connect 86 0 56 0;
#X connect 87 0 55 0;
#X connect 88 0 49 0;
#X connect 89 0 57 0;
#X connect 90 0 70 0;
#X connect 91 0 72 0;
#X connect 92 0 71 0;
#X connect 93 0 84 0;
#X connect 94 0 81 0;
#X connect 95 0 73 0;
#X connect 96 0 67 0;
#X connect 97 0 76 0;
#X restore 47 80 pd tabplays;
#X text 198 261 Battements;
#X obj 110 182 line;
#X obj 47 161 rev1~;
#X obj 65 98 loadbang;
#X floatatom 65 140 5 0 0 0 - - -;
#X msg 65 119 1;
#X obj 5 139 lop~;
#X floatatom 28 120 5 0 0 0 - - -;
#X obj 197 361 comport 3 115200;
#X obj 259 448 print;
#X obj 194 601 int;
#X floatatom 194 622 5 0 0 0 - - -;
#X obj 390 420 bng 15 250 50 0 empty empty empty 17 7 0 10 -262144
-1 -1;
#X floatatom 300 494 5 0 0 0 - - -;
#X obj 298 636 bng 15 250 50 0 empty empty empty 17 7 0 10 -262144
-1 -1;
#X obj 298 605 sel 1;
#X obj 199 324 pack f f;
#X floatatom 301 417 5 0 0 0 - - -;
#N canvas 0 50 450 250 (subpatch) 0;
#X array pulse 100 float 5;
#A 0 0 0 0 0 0 0 0 0 0 0 0 0 0 0 0 0 0 0 0 0 0 0 0 0 0 0 0 0 0 0 0
0 0 0 0 0 0 0 0 0 0 0 0 0 0 0 0 0 0 0 0 0 0 0 0 0 0 0 0 0 0 0 0 0 0
0 0 0 0 0 0 0 0 0 0 0 0 0 0 0 0 0 0 0 0 0 0 0 0 0 0 0 0 0 0 0 0 0 0
0;
#X coords 0 1 100 -1 200 140 1;
#X restore 271 50 graph;
#X obj 384 453 tabwrite~ pulse;
#X connect 1 0 2 0;
#X connect 2 0 28 0;
#X connect 3 0 2 1;
#X connect 4 0 5 0;
#X connect 5 0 30 0;
#X connect 6 0 0 0;
#X connect 6 0 0 1;
#X connect 7 0 37 0;
#X connect 8 0 37 0;
#X connect 9 0 37 0;
#X connect 10 0 11 0;
#X connect 11 0 12 0;
#X connect 11 1 13 1;
#X connect 12 0 13 0;
#X connect 13 0 19 0;
#X connect 14 0 39 0;
#X connect 14 0 39 1;
#X connect 15 0 16 0;
#X connect 16 0 45 0;
#X connect 17 0 37 0;
#X connect 18 0 15 0;
#X connect 19 0 20 0;
#X connect 20 0 21 0;
#X connect 20 0 48 0;
#X connect 21 0 23 0;
#X connect 22 0 24 0;
#X connect 23 0 25 0;
#X connect 23 0 42 0;
#X connect 24 0 21 0;
#X connect 24 0 41 0;
#X connect 25 0 14 0;
#X connect 26 0 25 1;
#X connect 28 0 35 0;
#X connect 30 0 6 1;
#X connect 31 0 6 0;
#X connect 32 0 34 0;
#X connect 33 0 31 1;
#X connect 34 0 33 0;
#X connect 35 0 31 0;
#X connect 36 0 35 1;
#X connect 37 0 10 0;
#X connect 39 0 40 0;
#X connect 40 0 44 0;
#X connect 41 0 48 0;
#X connect 44 0 43 0;
#X connect 45 0 17 0;
