#N canvas -8 -8 1366 685 10;
#X obj 1159 534 hsl 80 15 0 1 0 0 empty empty gain -2 -8 0 10 -262144
-1 -1 7600 1;
#X msg 1156 554 \$1 25;
#X obj 1156 577 line~;
#X obj 1129 578 *~;
#X obj 1129 601 dac~;
#X floatatom 847 40 5 0 0 0 - - -;
#X floatatom 884 40 5 0 0 0 - - -;
#X floatatom 922 40 5 0 0 0 - - -;
#X obj 836 87 pack f f f;
#X obj 17 369 hsl 128 15 0.01 30 1 0 empty empty lfo_speed -2 -8 0
10 -262144 -1 -1 7949 1;
#X floatatom 18 394 5 0 0 0 - - -;
#X obj 158 372 hsl 128 15 1 50 1 0 empty empty filter_Q -2 -8 0 10
-262144 -1 -1 4416 1;
#X floatatom 155 392 5 0 0 0 - - -;
#X obj 18 416 s lfo_speed;
#X obj 155 414 s filter_Q;
#X text 83 335 sawfilter controls;
#X obj 1057 345 vcf~;
#X obj 763 508 hsl 128 15 0 127 0 0 empty empty center_frequency -2
-8 0 10 -262144 -1 -1 8988 1;
#X obj 760 548 mtof~;
#X obj 759 622 +~;
#X floatatom 934 527 5 0 1000 0 - - -;
#X obj 773 576 osc~;
#X obj 773 599 *~;
#X floatatom 1046 568 5 0 0 0 modulation_amount - -;
#X floatatom 1106 368 5 0 0 0 - - -;
#X obj 1166 359 hsl 150 15 0 10 0 0 empty empty Resonance -2 -8 0 10
-262144 -1 -1 366 1;
#X obj 937 507 hsl 50 15 0 1000 0 0 empty empty modulation_frequency
-2 -8 0 10 -262144 -1 -1 1989 1;
#X obj 7 36 tgl 15 0 empty empty empty 17 7 0 10 -262144 -1 -1 0 1
;
#X floatatom 8 98 5 0 0 0 - - -;
#X obj 128 61 bng 15 250 50 0 empty empty empty 17 7 0 10 -262144 -1
-1;
#X obj 147 61 bng 15 250 50 0 empty empty empty 17 7 0 10 -262144 -1
-1;
#X obj 164 61 bng 15 250 50 0 empty empty empty 17 7 0 10 -262144 -1
-1;
#X obj 182 61 bng 15 250 50 0 empty empty empty 17 7 0 10 -262144 -1
-1;
#X obj 202 62 bng 15 250 50 0 empty empty empty 17 7 0 10 -262144 -1
-1;
#X obj 221 62 bng 15 250 50 0 empty empty empty 17 7 0 10 -262144 -1
-1;
#X obj 239 62 bng 15 250 50 0 empty empty empty 17 7 0 10 -262144 -1
-1;
#X obj 129 41 select 0 1 2 3 4 5 6;
#X msg 834 2 stop;
#X obj 360 25 until;
#X obj 420 13 counter 0 127;
#X msg 360 5 128;
#X obj 19 126 t f b;
#X msg 427 33 \$1 0;
#X obj 8 77 random 7;
#X obj 780 136 sawfilterj~;
#X obj 810 159 sinej~;
#X obj 884 161 sinej~;
#X obj 956 163 sinej~;
#X obj 1016 161 sinej~;
#X obj 1088 161 sinej~;
#X obj 1094 209 sinej~;
#X obj 1018 208 sinej~;
#X obj 958 209 sinej~;
#X obj 892 209 sinej~;
#X obj 821 207 sinej~;
#X obj 862 139 sawfilterj~;
#X obj 934 140 sawfilterj~;
#X obj 1003 140 sawfilterj~;
#X obj 1071 139 sawfilterj~;
#X obj 802 183 sawfilterj~;
#X obj 872 185 sawfilterj~;
#X obj 1082 187 sawfilterj~;
#X obj 1013 185 sawfilterj~;
#X obj 943 185 sawfilterj~;
#X msg 128 81 16 80 \, 28 127 \, 36 100 \, 43 75 \, 48 100 \, 67 90
;
#X text 100 80 C/E;
#X msg 128 105 24 90 \, 31 127 \, 38 100 \, 40 100 \, 55 90 \, 59 75
;
#X text 98 103 CM7;
#X msg 128 128 29 127 \, 43 90 \, 48 100 \, 52 90 \, 60 75 \, 67 75
;
#X text 99 127 C/F;
#X msg 129 152 26 115 \, 38 100 \, 43 127 \, 48 75 \, 52 120 \, 64
75;
#X text 99 151 C/D;
#X msg 130 178 22 127 \, 34 127 \, 43 80 \, 48 100 \, 52 75 \, 55 90
;
#X text 94 178 C/Bb;
#X text 85 200 C/E v2;
#X text 85 225 CM7 v2;
#X msg 129 201 16 127 \, 28 110 \, 36 80 \, 31 80 \, 43 115 \, 60 100
;
#X msg 129 226 24 120 \, 31 120 \, 38 120 \, 40 115 \, 55 60 \, 71
100;
#X obj 1146 139 sawfilterj~;
#X obj 1160 160 sinej~;
#X obj 1156 187 sawfilterj~;
#X obj 1160 207 sinej~;
#X obj 836 106 route 1 2 3 4 5 6 7 8 9 10 11 12;
#X obj 1042 417 rev1~;
#X floatatom 1112 438 5 0 0 0 - - -;
#X obj 1109 327 loadbang;
#X obj 759 446 loadbang;
#X obj 28 282 loadbang;
#X msg 1 308 0.333;
#X obj 186 285 loadbang;
#X msg 186 306 1.2;
#X msg 1110 348 0.5;
#X floatatom 760 528 5 0 0 0 - - -;
#X msg 760 475 50;
#X obj 966 450 loadbang;
#X msg 966 471 500;
#X obj 1046 520 loadbang;
#X msg 1046 541 200;
#X obj 8 54 metro 10000, f 12;
#X obj 1120 396 loadbang;
#X obj 229 327 varalea 2500 1 5;
#X obj 77 22 varalea 10000 10000 15000;
#X obj 77 2 loadbang;
#X obj 801 476 varalea 5000 50 127;
#X obj 872 397 varalea 2500 0 1000;
#X obj 1184 325 varalea 2500 0 2;
#X obj 906 244 *~ 10;
#X obj 1024 619 varalea 5000 0 200;
#X msg 1120 417 97;
#X obj 44 311 varalea 7000 0.5 5;
#X obj 866 22 poly 12;
#X obj 1011 52 + 5;
#X obj 975 20 metro 60000;
#X msg 432 155 26 127;
#X msg 432 179 22 127;
#X msg 434 226 24 127;
#X text 424 66 BASS NOTES;
#X obj 524 269 mtof;
#X obj 524 291 osc~;
#X obj 653 168 tgl 15 0 empty empty empty 17 7 0 10 -262144 -1 -1 0
1;
#X text 647 150 stop;
#X msg 433 86 24 127;
#X msg 434 108 19 127;
#X msg 430 199 22 127;
#X msg 433 130 26 127;
#X text 5 19 start/stop;
#X obj 682 328 *~ 0.7;
#X obj 1189 476 rev1~;
#X obj 1243 435 loadbang;
#X msg 1243 456 70;
#X floatatom 1243 477 5 0 0 0 - - -;
#X connect 0 0 1 0;
#X connect 1 0 2 0;
#X connect 2 0 3 1;
#X connect 3 0 4 0;
#X connect 3 0 4 1;
#X connect 5 0 8 0;
#X connect 6 0 8 1;
#X connect 7 0 8 2;
#X connect 8 0 82 0;
#X connect 9 0 10 0;
#X connect 10 0 13 0;
#X connect 11 0 12 0;
#X connect 12 0 14 0;
#X connect 16 0 127 0;
#X connect 17 0 92 0;
#X connect 18 0 19 0;
#X connect 19 0 16 1;
#X connect 20 0 21 0;
#X connect 21 0 22 0;
#X connect 22 0 19 1;
#X connect 23 0 22 1;
#X connect 24 0 16 2;
#X connect 25 0 24 0;
#X connect 26 0 20 0;
#X connect 27 0 98 0;
#X connect 28 0 41 0;
#X connect 29 0 64 0;
#X connect 29 0 121 0;
#X connect 30 0 66 0;
#X connect 30 0 122 0;
#X connect 31 0 68 0;
#X connect 31 0 124 0;
#X connect 32 0 70 0;
#X connect 32 0 113 0;
#X connect 33 0 72 0;
#X connect 33 0 114 0;
#X connect 34 0 76 0;
#X connect 34 0 123 0;
#X connect 35 0 77 0;
#X connect 35 0 115 0;
#X connect 36 0 29 0;
#X connect 36 1 30 0;
#X connect 36 2 31 0;
#X connect 36 3 32 0;
#X connect 36 4 33 0;
#X connect 36 5 34 0;
#X connect 36 6 35 0;
#X connect 37 0 110 0;
#X connect 38 0 39 0;
#X connect 39 0 42 0;
#X connect 40 0 38 0;
#X connect 41 0 36 0;
#X connect 41 1 40 0;
#X connect 42 0 110 0;
#X connect 43 0 28 0;
#X connect 44 0 106 0;
#X connect 45 0 106 0;
#X connect 46 0 106 0;
#X connect 47 0 106 0;
#X connect 48 0 106 0;
#X connect 49 0 106 0;
#X connect 50 0 106 0;
#X connect 51 0 106 0;
#X connect 52 0 106 0;
#X connect 53 0 106 0;
#X connect 55 0 106 0;
#X connect 56 0 106 0;
#X connect 57 0 106 0;
#X connect 58 0 106 0;
#X connect 59 0 106 0;
#X connect 60 0 106 0;
#X connect 61 0 106 0;
#X connect 62 0 106 0;
#X connect 63 0 106 0;
#X connect 64 0 110 0;
#X connect 66 0 110 0;
#X connect 68 0 110 0;
#X connect 70 0 110 0;
#X connect 72 0 110 0;
#X connect 76 0 110 0;
#X connect 77 0 110 0;
#X connect 78 0 106 0;
#X connect 79 0 106 0;
#X connect 80 0 106 0;
#X connect 81 0 106 0;
#X connect 82 0 44 0;
#X connect 82 0 45 0;
#X connect 82 1 54 0;
#X connect 82 1 59 0;
#X connect 82 2 46 0;
#X connect 82 2 55 0;
#X connect 82 3 53 0;
#X connect 82 3 60 0;
#X connect 82 4 47 0;
#X connect 82 4 56 0;
#X connect 82 5 52 0;
#X connect 82 5 63 0;
#X connect 82 6 48 0;
#X connect 82 6 57 0;
#X connect 82 7 51 0;
#X connect 82 7 62 0;
#X connect 82 8 49 0;
#X connect 82 8 58 0;
#X connect 82 9 50 0;
#X connect 82 9 61 0;
#X connect 82 10 79 0;
#X connect 82 10 78 0;
#X connect 82 11 81 0;
#X connect 82 11 80 0;
#X connect 83 0 3 0;
#X connect 84 0 83 1;
#X connect 85 0 91 0;
#X connect 85 0 105 0;
#X connect 86 0 93 0;
#X connect 86 0 103 0;
#X connect 87 0 88 0;
#X connect 87 0 109 0;
#X connect 88 0 9 0;
#X connect 89 0 90 0;
#X connect 89 0 100 0;
#X connect 90 0 11 0;
#X connect 91 0 24 0;
#X connect 92 0 18 0;
#X connect 93 0 17 0;
#X connect 94 0 95 0;
#X connect 94 0 104 0;
#X connect 95 0 26 0;
#X connect 96 0 97 0;
#X connect 96 0 107 0;
#X connect 97 0 23 0;
#X connect 98 0 43 0;
#X connect 99 0 108 0;
#X connect 100 0 11 0;
#X connect 101 0 98 1;
#X connect 102 0 101 0;
#X connect 103 0 17 0;
#X connect 104 0 26 0;
#X connect 105 0 25 0;
#X connect 106 0 16 0;
#X connect 106 0 83 0;
#X connect 107 0 23 0;
#X connect 108 0 84 0;
#X connect 109 0 9 0;
#X connect 110 0 5 0;
#X connect 110 1 6 0;
#X connect 110 2 7 0;
#X connect 113 0 117 0;
#X connect 114 0 117 0;
#X connect 115 0 117 0;
#X connect 117 0 118 0;
#X connect 118 0 126 0;
#X connect 119 0 117 0;
#X connect 119 0 37 0;
#X connect 121 0 117 0;
#X connect 122 0 117 0;
#X connect 123 0 117 0;
#X connect 124 0 117 0;
#X connect 126 0 127 0;
#X connect 127 0 3 0;
#X connect 128 0 129 0;
#X connect 129 0 130 0;
#X connect 130 0 127 1;
