#N canvas 53 58 1179 620 10;
#X obj 639 515 hsl 80 15 0 1 0 0 empty empty gain -2 -8 0 10 -262144
-1 -1 6200 1;
#X msg 636 535 \$1 25;
#X obj 636 558 line~;
#X obj 609 559 *~;
#X obj 609 582 dac~;
#X floatatom 747 447 5 0 0 0 - - -;
#X floatatom 783 447 5 0 0 0 - - -;
#X floatatom 820 446 5 0 0 0 - - -;
#X floatatom 856 446 5 0 0 0 - - -;
#X obj 484 97 poly 10;
#X floatatom 466 118 5 0 0 0 - - -;
#X floatatom 503 118 5 0 0 0 - - -;
#X floatatom 541 118 5 0 0 0 - - -;
#X obj 480 138 pack f f f;
#X obj 468 162 route 1 2 3 4 5 6 7 8 9 10;
#X obj -63 416 hsl 128 15 0.01 30 1 0 empty empty lfo_speed -2 -8 0
10 -262144 -1 -1 0 1;
#X floatatom -66 439 5 0 0 0 - - -;
#X obj 74 417 hsl 128 15 1 50 1 0 empty empty filter_Q -2 -8 0 10 -262144
-1 -1 0 1;
#X floatatom 71 437 5 0 0 0 - - -;
#X obj -66 461 s lfo_speed;
#X obj 71 459 s filter_Q;
#X obj 769 504 pack f f f f;
#X obj 783 467 t b f;
#X obj 820 468 t b f;
#X obj 856 468 t b f;
#X obj 769 527 s adsr_ctrl;
#X text 746 430 a;
#X text 780 431 d;
#X text 817 430 s;
#X text 853 430 r;
#X text -1 380 sawfilter controls;
#X text 768 412 envelope controls;
#X obj 535 321 vcf~;
#X obj 243 489 hsl 128 15 0 127 0 0 empty empty center_frequency -2
-8 0 10 -262144 -1 -1 0 1;
#X obj 240 509 mtof~;
#X obj 239 603 +~;
#X floatatom 414 508 5 0 1000 0 - - -;
#X obj 253 557 osc~;
#X obj 253 580 *~;
#X floatatom 526 549 5 0 0 0 modulation_amount - -;
#X floatatom 586 349 5 0 0 0 - - -;
#X obj 627 330 hsl 150 15 0 10 0 0 empty empty Resonance -2 -8 0 10
-262144 -1 -1 0 1;
#X obj 417 488 hsl 50 15 0 1000 0 0 empty empty modulation_frequency
-2 -8 0 10 -262144 -1 -1 0 1;
#X obj 423 193 sawfilter~;
#X obj 516 217 sine~;
#X obj -77 81 tgl 15 0 empty empty empty 17 7 0 10 -262144 -1 -1 0
1;
#X floatatom -76 143 5 0 0 0 - - -;
#X obj 44 106 bng 15 250 50 0 empty empty empty 17 7 0 10 -262144 -1
-1;
#X obj 63 106 bng 15 250 50 0 empty empty empty 17 7 0 10 -262144 -1
-1;
#X obj 80 106 bng 15 250 50 0 empty empty empty 17 7 0 10 -262144 -1
-1;
#X obj 98 106 bng 15 250 50 0 empty empty empty 17 7 0 10 -262144 -1
-1;
#X obj 118 107 bng 15 250 50 0 empty empty empty 17 7 0 10 -262144
-1 -1;
#X obj 137 107 bng 15 250 50 0 empty empty empty 17 7 0 10 -262144
-1 -1;
#X obj 155 107 bng 15 250 50 0 empty empty empty 17 7 0 10 -262144
-1 -1;
#X text 16 125 I Do;
#X text 9 148 IV Fa;
#X text 3 173 VII Si;
#X text 3 198 III Mi;
#X text 8 223 VI La;
#X text 8 246 II Ré;
#X text 9 271 V Sol;
#X obj 45 86 select 0 1 2 3 4 5 6;
#X msg 458 54 stop;
#X obj 360 65 until;
#X obj 361 94 counter 0 127;
#X msg 325 52 128;
#X obj -65 171 t f b;
#X msg 361 125 \$1 0;
#X obj -76 122 random 7;
#X obj 703 195 sawfilter~;
#X obj 494 195 sawfilter~;
#X obj 434 239 sawfilter~;
#X obj 566 196 sawfilter~;
#X obj 645 241 sawfilter~;
#X obj 575 241 sawfilter~;
#X obj 714 243 sawfilter~;
#X obj 635 196 sawfilter~;
#X obj 504 241 sawfilter~;
#X obj 442 215 sine~;
#X obj 453 263 sine~;
#X obj 524 265 sine~;
#X obj 588 219 sine~;
#X obj 590 265 sine~;
#X obj 648 217 sine~;
#X obj 650 264 sine~;
#X obj 720 217 sine~;
#X obj 726 265 sine~;
#X msg 44 126 24 127 \, 31 100 \, 36 80 \, 40 75 \, 47 75 \, 60 60
;
#X msg 45 271 19 100 \, 26 127 \, 31 100 \, 35 75 \, 50 60 \, 67 50
;
#X msg 44 150 29 127 \, 33 115 \, 36 100 \, 41 100 \, 45 75 \, 77 50
;
#X msg 44 173 23 120 \, 35 90 \, 38 100 \, 41 80 \, 53 75 \, 59 75
;
#X msg 45 197 28 127 \, 31 100 \, 35 90 \, 40 75 \, 52 80 \, 71 55
;
#X msg 46 223 33 127 \, 36 100 \, 40 90 \, 52 80 \, 55 75 \, 69 55
;
#X msg 45 246 26 127 \, 38 110 \, 41 95 \, 45 80 \, 60 70 \, 74 50
;
#X obj 537 301 *~ 1;
#X obj 518 399 freeverb~;
#X obj -76 100 metro 5000;
#X connect 0 0 1 0;
#X connect 1 0 2 0;
#X connect 2 0 3 1;
#X connect 3 0 4 0;
#X connect 3 0 4 1;
#X connect 5 0 21 0;
#X connect 6 0 22 0;
#X connect 7 0 23 0;
#X connect 8 0 24 0;
#X connect 9 0 10 0;
#X connect 9 1 11 0;
#X connect 9 2 12 0;
#X connect 10 0 13 0;
#X connect 11 0 13 1;
#X connect 12 0 13 2;
#X connect 13 0 14 0;
#X connect 14 0 43 0;
#X connect 14 0 78 0;
#X connect 14 1 71 0;
#X connect 14 1 79 0;
#X connect 14 2 44 0;
#X connect 14 2 70 0;
#X connect 14 3 77 0;
#X connect 14 3 80 0;
#X connect 14 4 72 0;
#X connect 14 4 81 0;
#X connect 14 5 74 0;
#X connect 14 5 82 0;
#X connect 14 6 76 0;
#X connect 14 6 83 0;
#X connect 14 7 73 0;
#X connect 14 7 84 0;
#X connect 14 8 69 0;
#X connect 14 8 85 0;
#X connect 14 9 75 0;
#X connect 14 9 86 0;
#X connect 15 0 16 0;
#X connect 16 0 19 0;
#X connect 17 0 18 0;
#X connect 18 0 20 0;
#X connect 21 0 25 0;
#X connect 22 0 21 0;
#X connect 22 1 21 1;
#X connect 23 0 21 0;
#X connect 23 1 21 2;
#X connect 24 0 21 0;
#X connect 24 1 21 3;
#X connect 32 0 95 0;
#X connect 32 0 95 1;
#X connect 33 0 34 0;
#X connect 34 0 35 0;
#X connect 35 0 32 1;
#X connect 36 0 37 0;
#X connect 37 0 38 0;
#X connect 38 0 35 1;
#X connect 39 0 38 1;
#X connect 40 0 32 2;
#X connect 41 0 40 0;
#X connect 42 0 36 0;
#X connect 43 0 94 0;
#X connect 44 0 94 0;
#X connect 45 0 96 0;
#X connect 46 0 66 0;
#X connect 47 0 87 0;
#X connect 48 0 89 0;
#X connect 49 0 90 0;
#X connect 50 0 91 0;
#X connect 51 0 92 0;
#X connect 52 0 93 0;
#X connect 53 0 88 0;
#X connect 61 0 47 0;
#X connect 61 1 48 0;
#X connect 61 2 49 0;
#X connect 61 3 50 0;
#X connect 61 4 51 0;
#X connect 61 5 52 0;
#X connect 61 6 53 0;
#X connect 62 0 9 0;
#X connect 63 0 64 0;
#X connect 64 0 67 0;
#X connect 65 0 63 0;
#X connect 66 0 61 0;
#X connect 66 1 65 0;
#X connect 67 0 9 0;
#X connect 68 0 46 0;
#X connect 69 0 94 0;
#X connect 70 0 94 0;
#X connect 71 0 94 0;
#X connect 72 0 94 0;
#X connect 73 0 94 0;
#X connect 74 0 94 0;
#X connect 75 0 94 0;
#X connect 76 0 94 0;
#X connect 77 0 94 0;
#X connect 78 0 94 0;
#X connect 79 0 94 0;
#X connect 80 0 94 0;
#X connect 81 0 94 0;
#X connect 82 0 94 0;
#X connect 83 0 94 0;
#X connect 84 0 94 0;
#X connect 85 0 94 0;
#X connect 86 0 94 0;
#X connect 87 0 9 0;
#X connect 88 0 9 0;
#X connect 89 0 9 0;
#X connect 90 0 9 0;
#X connect 91 0 9 0;
#X connect 92 0 9 0;
#X connect 93 0 9 0;
#X connect 94 0 32 0;
#X connect 95 0 3 0;
#X connect 95 1 3 0;
#X connect 96 0 68 0;
