#N canvas 305 105 581 401 10;
#X obj 121 275 *~;
#X obj 86 50 unpack;
#X obj 86 73 mtof;
#X obj 86 145 phasor~;
#X obj 86 168 *~ 2;
#X obj 86 191 -~ 1;
#X obj 86 23 inlet midi;
#X obj 121 303 outlet~;
#X obj 138 204 lfo~ 0.1 250 2500;
#X obj 80 246 vcf~ 5;
#X obj 85 94 sig~;
#X obj 85 118 *~;
#X obj 242 44 loadbang;
#X obj 149 142 r lfo_speed;
#X floatatom 149 165 5 0 0 0 - - -;
#X obj 290 112 r filter_Q;
#X floatatom 290 135 5 0 0 0 - - -;
#X obj 227 114 / 127;
#X obj 242 68 varalea~ 1000 0.99 1.01;
#X obj 304 213 adsr~ 1000 125 1 250;
#X connect 0 0 7 0;
#X connect 1 0 2 0;
#X connect 1 1 17 0;
#X connect 2 0 10 0;
#X connect 3 0 4 0;
#X connect 4 0 5 0;
#X connect 5 0 9 0;
#X connect 6 0 1 0;
#X connect 8 0 9 1;
#X connect 9 0 0 0;
#X connect 10 0 11 0;
#X connect 11 0 3 0;
#X connect 12 0 18 0;
#X connect 13 0 14 0;
#X connect 14 0 8 0;
#X connect 15 0 16 0;
#X connect 16 0 9 2;
#X connect 17 0 19 0;
#X connect 18 0 11 1;
#X connect 19 0 0 1;
