#N canvas 570 39 796 564 16;
#X obj 170 412 outlet~;
#X obj 159 43 inlet midi;
#X text 269 43 [pitch \, velocity];
#X obj 162 91 unpack;
#X obj 159 142 mtof;
#X obj 159 189 osc~;
#X obj 160 228 *~;
#X obj 170 385 *~ 0.8;
#X obj 291 219 / 127;
#X obj 223 264 adsr~ 50 125 0.7 750;
#X connect 1 0 3 0;
#X connect 3 0 4 0;
#X connect 3 1 8 0;
#X connect 4 0 5 0;
#X connect 5 0 6 0;
#X connect 6 0 7 0;
#X connect 7 0 0 0;
#X connect 8 0 9 0;
#X connect 9 0 7 1;
