#N canvas 717 63 1012 595 10;
#X obj 717 441 hsl 80 15 0 1 0 0 empty empty gain -2 -8 0 10 -262144
-1 -1 0 1;
#X msg 714 461 \$1 25;
#X obj 714 484 line~;
#X obj 687 485 *~;
#X obj 687 508 dac~;
#X floatatom 825 373 5 0 0 0 - - -;
#X floatatom 861 373 5 0 0 0 - - -;
#X floatatom 898 372 5 0 0 0 - - -;
#X floatatom 934 372 5 0 0 0 - - -;
#X obj 486 28 poly 10;
#X floatatom 468 49 5 0 0 0 - - -;
#X floatatom 505 49 5 0 0 0 - - -;
#X floatatom 543 49 5 0 0 0 - - -;
#X obj 482 69 pack f f f;
#X obj 470 93 route 1 2 3 4 5 6 7 8 9 10;
#X obj 539 232 *~ 0.2;
#X obj -32 473 hsl 128 15 0.01 30 1 0 empty empty lfo_speed -2 -8 0
10 -262144 -1 -1 0 1;
#X floatatom -35 496 5 0 0 0 - - -;
#X obj 105 474 hsl 128 15 1 50 1 0 empty empty filter_Q -2 -8 0 10
-262144 -1 -1 0 1;
#X floatatom 102 494 5 0 0 0 - - -;
#X obj -35 518 s lfo_speed;
#X obj 102 516 s filter_Q;
#X obj 847 430 pack f f f f;
#X obj 861 393 t b f;
#X obj 898 394 t b f;
#X obj 934 394 t b f;
#X obj 847 453 s adsr_ctrl;
#X obj 705 126 sawfilter~;
#X text 824 356 a;
#X text 858 357 d;
#X text 895 356 s;
#X text 931 356 r;
#X obj 444 146 sine~;
#X text 30 437 sawfilter controls;
#X text 846 338 envelope controls;
#X obj 537 252 vcf~;
#X obj 321 415 hsl 128 15 0 127 0 0 empty empty center_frequency -2
-8 0 10 -262144 -1 -1 0 1;
#X obj 318 435 mtof~;
#X obj 317 529 +~;
#X floatatom 492 434 5 0 1000 0 - - -;
#X obj 331 483 osc~;
#X obj 331 506 *~;
#X floatatom 604 475 5 0 0 0 modulation_amount - -;
#X floatatom 627 280 5 0 0 0 - - -;
#X obj 629 261 hsl 150 15 0 10 0 0 empty empty Resonance -2 -8 0 10
-262144 -1 -1 0 1;
#X obj 495 414 hsl 50 15 0 1000 0 0 empty empty modulation_frequency
-2 -8 0 10 -262144 -1 -1 0 1;
#X obj 425 124 sawfilter~;
#X obj 496 126 sawfilter~;
#X obj 436 170 sawfilter~;
#X obj 568 127 sawfilter~;
#X obj 647 172 sawfilter~;
#X obj 577 172 sawfilter~;
#X obj 716 174 sawfilter~;
#X obj 637 127 sawfilter~;
#X obj 506 172 sawfilter~;
#X obj 455 194 sine~;
#X obj 518 148 sine~;
#X obj 526 196 sine~;
#X obj 590 150 sine~;
#X obj 592 196 sine~;
#X obj 650 148 sine~;
#X obj 652 195 sine~;
#X obj 722 148 sine~;
#X obj 728 196 sine~;
#X obj 2 26 metro 2000;
#X obj 2 48 random 8;
#X obj 1 7 tgl 15 0 empty empty empty 17 7 0 10 -262144 -1 -1 0 1;
#X floatatom 2 69 5 0 0 0 - - -;
#X obj 122 32 bng 15 250 50 0 empty empty empty 17 7 0 10 -262144 -1
-1;
#X obj 141 32 bng 15 250 50 0 empty empty empty 17 7 0 10 -262144 -1
-1;
#X obj 158 32 bng 15 250 50 0 empty empty empty 17 7 0 10 -262144 -1
-1;
#X obj 176 32 bng 15 250 50 0 empty empty empty 17 7 0 10 -262144 -1
-1;
#X obj 196 33 bng 15 250 50 0 empty empty empty 17 7 0 10 -262144 -1
-1;
#X obj 215 33 bng 15 250 50 0 empty empty empty 17 7 0 10 -262144 -1
-1;
#X obj 233 33 bng 15 250 50 0 empty empty empty 17 7 0 10 -262144 -1
-1;
#X msg 122 52 24 127 \, 31 90 \, 36 100 \, 40 75 \, 47 50 \, 60 40
;
#X msg 122 76 29 120 \, 33 75 \, 36 80 \, 41 100 \, 45 75 \, 77 35
;
#X text 94 51 I Do;
#X text 87 74 IV Fa;
#X text 81 99 VII Si;
#X msg 122 99 23 120 \, 35 120 \, 38 100 \, 41 90 \, 53 75 \, 59 50
;
#X text 81 124 III Mi;
#X msg 123 123 28 90 \, 31 90 \, 35 75 \, 40 120 \, 52 75 \, 71 40
;
#X text 86 149 VI La;
#X text 86 172 II Ré;
#X text 87 197 V Sol;
#X obj 123 12 select 0 1 2 3 4 5 6;
#X msg 124 149 33 110 \, 36 90 \, 40 75 \, 52 50 \, 55 40 \, 69 30
;
#X msg 123 172 26 100 \, 38 90 \, 41 80 \, 45 90 \, 60 50 \, 74 20
;
#X msg 123 197 19 90 \, 26 75 \, 31 127 \, 35 100 \, 50 75 \, 67 50
;
#X connect 0 0 1 0;
#X connect 1 0 2 0;
#X connect 2 0 3 1;
#X connect 3 0 4 0;
#X connect 3 0 4 1;
#X connect 5 0 22 0;
#X connect 6 0 23 0;
#X connect 7 0 24 0;
#X connect 8 0 25 0;
#X connect 9 0 10 0;
#X connect 9 1 11 0;
#X connect 9 2 12 0;
#X connect 10 0 13 0;
#X connect 11 0 13 1;
#X connect 12 0 13 2;
#X connect 13 0 14 0;
#X connect 14 0 32 0;
#X connect 14 0 46 0;
#X connect 14 1 48 0;
#X connect 14 1 55 0;
#X connect 14 2 47 0;
#X connect 14 2 56 0;
#X connect 14 3 54 0;
#X connect 14 3 57 0;
#X connect 14 4 49 0;
#X connect 14 4 58 0;
#X connect 14 5 51 0;
#X connect 14 5 59 0;
#X connect 14 6 53 0;
#X connect 14 6 60 0;
#X connect 14 7 50 0;
#X connect 14 7 61 0;
#X connect 14 8 27 0;
#X connect 14 8 62 0;
#X connect 14 9 52 0;
#X connect 14 9 63 0;
#X connect 15 0 35 0;
#X connect 16 0 17 0;
#X connect 17 0 20 0;
#X connect 18 0 19 0;
#X connect 19 0 21 0;
#X connect 22 0 26 0;
#X connect 23 0 22 0;
#X connect 23 1 22 1;
#X connect 24 0 22 0;
#X connect 24 1 22 2;
#X connect 25 0 22 0;
#X connect 25 1 22 3;
#X connect 27 0 15 0;
#X connect 32 0 15 0;
#X connect 35 0 3 0;
#X connect 36 0 37 0;
#X connect 37 0 38 0;
#X connect 38 0 35 1;
#X connect 39 0 40 0;
#X connect 40 0 41 0;
#X connect 41 0 38 1;
#X connect 42 0 41 1;
#X connect 43 0 35 2;
#X connect 44 0 43 0;
#X connect 45 0 39 0;
#X connect 46 0 15 0;
#X connect 47 0 15 0;
#X connect 48 0 15 0;
#X connect 49 0 15 0;
#X connect 50 0 15 0;
#X connect 51 0 15 0;
#X connect 52 0 15 0;
#X connect 53 0 15 0;
#X connect 54 0 15 0;
#X connect 55 0 15 0;
#X connect 56 0 15 0;
#X connect 57 0 15 0;
#X connect 58 0 15 0;
#X connect 59 0 15 0;
#X connect 60 0 15 0;
#X connect 61 0 15 0;
#X connect 62 0 15 0;
#X connect 63 0 15 0;
#X connect 64 0 65 0;
#X connect 65 0 67 0;
#X connect 66 0 64 0;
#X connect 67 0 86 0;
#X connect 68 0 75 0;
#X connect 69 0 76 0;
#X connect 70 0 80 0;
#X connect 71 0 82 0;
#X connect 72 0 87 0;
#X connect 73 0 88 0;
#X connect 74 0 89 0;
#X connect 86 0 68 0;
#X connect 86 1 69 0;
#X connect 86 2 70 0;
#X connect 86 3 71 0;
#X connect 86 4 72 0;
#X connect 86 5 73 0;
#X connect 86 6 74 0;
