#N canvas 83 115 730 501 10;
#X obj 364 32 inlet min;
#X obj 512 35 inlet max;
#X obj 423 249 -;
#X obj 415 203 t b f;
#X floatatom 423 271 5 0 0 0 - - -;
#X obj 239 424 outlet~;
#X obj 435 32 loadbang;
#X obj 435 54 f \$2;
#X floatatom 382 81 5 0 0 0 - - -;
#X obj 585 35 loadbang;
#X obj 584 57 f \$3;
#X obj 250 32 inlet vitesse;
#X obj 115 32 inlet start;
#X obj 175 139 random 100;
#X floatatom 517 87 5 0 0 0 - - -;
#X obj 380 110 * 100;
#X obj 535 121 * 100;
#X obj 175 175 +;
#X floatatom 175 197 5 0 0 0 - - -;
#X msg 116 117 bang;
#X obj 175 216 * 0.01;
#X floatatom 175 238 5 0 0 0 - - -;
#X obj 239 396 line~;
#X obj 175 74 metro \$1;
#X obj 219 343 pack f \$1;
#X connect 0 0 8 0;
#X connect 1 0 14 0;
#X connect 2 0 4 0;
#X connect 3 0 2 0;
#X connect 3 1 2 1;
#X connect 4 0 13 1;
#X connect 6 0 7 0;
#X connect 7 0 8 0;
#X connect 8 0 15 0;
#X connect 9 0 10 0;
#X connect 10 0 14 0;
#X connect 11 0 23 1;
#X connect 11 0 24 1;
#X connect 12 0 23 0;
#X connect 13 0 17 0;
#X connect 14 0 16 0;
#X connect 15 0 3 0;
#X connect 15 0 17 1;
#X connect 16 0 2 0;
#X connect 17 0 18 0;
#X connect 18 0 20 0;
#X connect 19 0 13 0;
#X connect 20 0 21 0;
#X connect 21 0 24 0;
#X connect 22 0 5 0;
#X connect 23 0 13 0;
#X connect 24 0 22 0;
