#N canvas 28 17 1370 676 10;
#X obj 133 317 dac~;
#N canvas 0 50 450 250 (subpatch) 0;
#X array src1 13363 float 2;
#X coords 0 1 13363 -1 100 70 1 0 0;
#X restore 286 433 graph;
#X obj 288 403 soundfiler;
#X obj 288 356 loadbang;
#X obj 443 1 tgl 15 0 empty empty empty 17 7 0 10 -262144 -1 -1 0 1
;
#X obj 443 22 metro 200;
#X obj 13 98 bng 15 250 50 0 empty empty empty 17 7 0 10 -262144 -1
-1;
#X obj 92 98 bng 15 250 50 0 empty empty empty 17 7 0 10 -262144 -1
-1;
#X obj 173 100 bng 15 250 50 0 empty empty empty 17 7 0 10 -262144
-1 -1;
#X floatatom 494 1 5 0 0 0 - - -;
#X obj 211 305 hsl 128 15 0 1 0 0 empty empty empty -2 -8 0 10 -262144
-1 -1 7200 1;
#X msg 208 322 \$1 25;
#X obj 208 342 line~;
#X obj 14 219 vcf~ 6;
#X obj 93 219 vcf~ 6;
#X obj 174 219 vcf~ 6;
#X obj 255 221 vcf~ 6;
#X obj 253 101 bng 15 250 50 0 empty empty empty 17 7 0 10 -262144
-1 -1;
#N canvas 0 50 450 250 (subpatch) 0;
#X array src2 14695 float 2;
#X coords 0 1 14695 -1 100 70 1 0 0;
#X restore 447 434 graph;
#X obj 449 404 soundfiler;
#X obj 449 357 loadbang;
#X msg 449 380 read -resize bd2.wav src2;
#X msg 288 381 read -resize bd1.wav src1;
#N canvas 0 50 450 250 (subpatch) 0;
#X array src3 18995 float 2;
#X coords 0 1 18995 -1 100 70 1 0 0;
#X restore 610 432 graph;
#X obj 612 402 soundfiler;
#X obj 612 355 loadbang;
#X msg 612 380 read -resize clac.wav src3;
#N canvas 0 50 450 250 (subpatch) 0;
#X array src4 21827 float 2;
#X coords 0 1 21827 -1 100 70 1 0 0;
#X restore 778 432 graph;
#X obj 780 402 soundfiler;
#X obj 780 355 loadbang;
#X msg 780 380 read -resize ting1.wav src4;
#N canvas 0 50 450 250 (subpatch) 0;
#X array src5 30105 float 2;
#X coords 0 1 30105 -1 100 70 1 0 0;
#X restore 950 431 graph;
#X obj 952 401 soundfiler;
#X obj 952 354 loadbang;
#N canvas 0 50 450 250 (subpatch) 0;
#X array src6 15053 float 2;
#X coords 0 1 15053 -1 100 70 1 0 0;
#X restore 1123 431 graph;
#X obj 1125 401 soundfiler;
#X obj 1125 354 loadbang;
#N canvas 0 50 450 250 (subpatch) 0;
#X array src7 27136 float 2;
#X coords 0 1 27136 -1 100 70 1 0 0;
#X restore 115 593 graph;
#X obj 117 563 soundfiler;
#X obj 117 516 loadbang;
#N canvas 0 50 450 250 (subpatch) 0;
#X array src8 30858 float 2;
#X coords 0 1 30858 -1 100 70 1 0 0;
#X restore 286 589 graph;
#X obj 288 559 soundfiler;
#X obj 288 512 loadbang;
#N canvas 0 50 450 250 (subpatch) 0;
#X array src9 4660 float 2;
#X coords 0 1 4660 -1 100 70 1 0 0;
#X restore 446 589 graph;
#X obj 448 559 soundfiler;
#X obj 448 512 loadbang;
#N canvas 0 50 450 250 (subpatch) 0;
#X array src10 3635 float 2;
#X coords 0 1 3635 -1 100 70 1 0 0;
#X restore 618 591 graph;
#X obj 620 561 soundfiler;
#X obj 620 514 loadbang;
#N canvas 0 50 450 250 (subpatch) 0;
#X array src11 5325 float 2;
#X coords 0 1 5325 -1 100 70 1 0 0;
#X restore 797 590 graph;
#X obj 799 560 soundfiler;
#X obj 799 513 loadbang;
#N canvas 0 50 450 250 (subpatch) 0;
#X array src12 4557 float 2;
#X coords 0 1 4557 -1 100 70 1 0 0;
#X restore 980 590 graph;
#X obj 982 560 soundfiler;
#X obj 982 513 loadbang;
#N canvas 0 50 450 250 (subpatch) 0;
#X array src13 4659 float 2;
#X coords 0 1 4659 -1 100 70 1 0 0;
#X restore 1160 589 graph;
#X obj 1162 559 soundfiler;
#X obj 1162 512 loadbang;
#X msg 952 379 read -resize ting2.wav src5;
#X msg 1125 377 read -resize ting3.wav src6;
#X msg 117 541 read -resize tling.wav src7;
#X msg 288 537 read -resize toc.wav src8;
#X msg 448 537 read -resize xylo1.wav src9;
#X msg 620 537 read -resize xylo2.wav src10;
#X msg 799 538 read -resize xylo3.wav src11;
#X msg 982 538 read -resize xylo4.wav src12;
#X msg 1162 537 read -resize xylo5.wav src13;
#X obj 14 119 tabplay~ src1;
#X obj 94 119 tabplay~ src2;
#X obj 175 119 tabplay~ src3;
#X obj 255 120 tabplay~ src4;
#X obj 347 219 vcf~ 6;
#X obj 426 219 vcf~ 6;
#X obj 507 219 vcf~ 6;
#X obj 588 221 vcf~ 6;
#X obj 347 119 tabplay~ src5;
#X obj 427 119 tabplay~ src6;
#X obj 508 119 tabplay~ src7;
#X obj 588 120 tabplay~ src8;
#X obj 675 219 vcf~ 6;
#X obj 754 219 vcf~ 6;
#X obj 844 219 vcf~ 6;
#X obj 935 221 vcf~ 6;
#X obj 675 119 tabplay~ src9;
#X obj 755 119 tabplay~ src10;
#X obj 845 119 tabplay~ src11;
#X obj 935 120 tabplay~ src12;
#X obj 1026 221 vcf~ 6;
#X obj 1026 120 tabplay~ src13;
#X obj 351 96 bng 15 250 50 0 empty empty empty 17 7 0 10 -262144 -1
-1;
#X obj 441 95 bng 15 250 50 0 empty empty empty 17 7 0 10 -262144 -1
-1;
#X obj 511 98 bng 15 250 50 0 empty empty empty 17 7 0 10 -262144 -1
-1;
#X obj 591 99 bng 15 250 50 0 empty empty empty 17 7 0 10 -262144 -1
-1;
#X obj 685 95 bng 15 250 50 0 empty empty empty 17 7 0 10 -262144 -1
-1;
#X obj 764 95 bng 15 250 50 0 empty empty empty 17 7 0 10 -262144 -1
-1;
#X obj 845 97 bng 15 250 50 0 empty empty empty 17 7 0 10 -262144 -1
-1;
#X obj 925 98 bng 15 250 50 0 empty empty empty 17 7 0 10 -262144 -1
-1;
#X obj 1029 99 bng 15 250 50 0 empty empty empty 17 7 0 10 -262144
-1 -1;
#X obj 170 75 sel 4 12;
#X obj 250 76 sel 3;
#X obj 348 75 sel 1;
#X obj 682 74 sel 10;
#X obj 842 72 sel 8;
#X obj 922 73 sel 7;
#X obj 508 73 sel 15;
#X obj 1026 74 sel 5;
#X obj 29 170 *~ 20;
#X obj 108 170 *~ 20;
#X obj 269 194 +~ 20000;
#X obj 362 193 +~ 20000;
#X obj 441 193 +~ 20000;
#X obj 523 193 +~ 20000;
#X obj 690 193 +~ 20000;
#X obj 1040 171 *~ 20;
#X obj 601 172 *~ 20;
#X obj 190 170 *~ 500;
#X obj 437 72 sel 6;
#X obj 588 74 sel 2;
#X obj 760 72 sel 14;
#X obj 10 77 sel 0 9;
#X obj 860 192 +~ 10000;
#X obj 1040 194 +~ 5000;
#X obj 659 297 delwrite~ del;
#X obj 89 76 sel 13;
#X obj 23 308 rev1~ 100;
#X obj 860 170 *~ 9000;
#X obj 108 193 +~ 8000;
#X obj 29 194 +~ 8000;
#X obj 270 171 *~ 16000;
#X obj 441 170 *~ 13000;
#X obj 362 170 *~ 18000;
#X obj 769 171 *~ 18000;
#X obj 769 194 +~ 20000;
#X obj 949 194 +~ 18000;
#X obj 950 171 *~ 14000;
#X obj 443 42 random 15;
#X obj 264 32 counter 0 15;
#X obj 190 194 +~ 3000;
#X obj 601 193 +~ 80;
#X obj 690 170 *~ 16000;
#X obj 141 286 *~ 0.5;
#X obj 20 286 delread~ del 100;
#X obj 24 328 bob~ 200 10;
#X obj 522 170 *~ 18000;
#X obj 29 144 osc~ 0.5;
#X obj 108 144 osc~ 0.5;
#X obj 190 144 osc~ 0.5;
#X obj 269 145 osc~ 0.5;
#X obj 362 144 osc~ 0.5;
#X obj 441 144 osc~ 0.5;
#X obj 523 144 osc~ 0.5;
#X obj 602 145 osc~ 0.5;
#X obj 690 144 osc~ 0.5;
#X obj 769 144 osc~ 0.5;
#X obj 860 144 osc~ 0.5;
#X obj 949 145 osc~ 0.5;
#X obj 1040 145 osc~ 0.5;
#N canvas 54 125 1128 300 tabplays 0;
#X restore 1144 241 pd tabplays;
#X connect 3 0 22 0;
#X connect 4 0 5 0;
#X connect 5 0 135 0;
#X connect 5 0 136 0;
#X connect 6 0 67 0;
#X connect 7 0 68 0;
#X connect 8 0 69 0;
#X connect 9 0 5 1;
#X connect 10 0 11 0;
#X connect 11 0 12 0;
#X connect 12 0 140 1;
#X connect 13 0 122 0;
#X connect 13 0 140 0;
#X connect 14 0 122 0;
#X connect 14 0 140 0;
#X connect 15 0 122 0;
#X connect 15 0 140 0;
#X connect 16 0 122 0;
#X connect 16 0 140 0;
#X connect 17 0 70 0;
#X connect 20 0 21 0;
#X connect 21 0 19 0;
#X connect 22 0 2 0;
#X connect 25 0 26 0;
#X connect 26 0 24 0;
#X connect 29 0 30 0;
#X connect 30 0 28 0;
#X connect 33 0 58 0;
#X connect 36 0 59 0;
#X connect 39 0 60 0;
#X connect 42 0 61 0;
#X connect 45 0 62 0;
#X connect 48 0 63 0;
#X connect 51 0 64 0;
#X connect 54 0 65 0;
#X connect 57 0 66 0;
#X connect 58 0 32 0;
#X connect 59 0 35 0;
#X connect 60 0 38 0;
#X connect 61 0 41 0;
#X connect 62 0 44 0;
#X connect 63 0 47 0;
#X connect 64 0 50 0;
#X connect 65 0 53 0;
#X connect 66 0 56 0;
#X connect 67 0 13 0;
#X connect 68 0 14 0;
#X connect 69 0 15 0;
#X connect 70 0 16 0;
#X connect 71 0 122 0;
#X connect 71 0 140 0;
#X connect 72 0 122 0;
#X connect 72 0 140 0;
#X connect 73 0 122 0;
#X connect 73 0 140 0;
#X connect 74 0 122 0;
#X connect 74 0 140 0;
#X connect 75 0 71 0;
#X connect 76 0 72 0;
#X connect 77 0 73 0;
#X connect 78 0 74 0;
#X connect 79 0 122 0;
#X connect 79 0 140 0;
#X connect 80 0 122 0;
#X connect 80 0 140 0;
#X connect 81 0 122 0;
#X connect 81 0 140 0;
#X connect 82 0 122 0;
#X connect 82 0 140 0;
#X connect 83 0 79 0;
#X connect 84 0 80 0;
#X connect 85 0 81 0;
#X connect 86 0 82 0;
#X connect 87 0 122 0;
#X connect 87 0 140 0;
#X connect 88 0 87 0;
#X connect 89 0 75 0;
#X connect 90 0 76 0;
#X connect 91 0 77 0;
#X connect 92 0 78 0;
#X connect 93 0 83 0;
#X connect 94 0 84 0;
#X connect 95 0 85 0;
#X connect 96 0 86 0;
#X connect 97 0 88 0;
#X connect 98 0 8 0;
#X connect 98 1 8 0;
#X connect 99 0 17 0;
#X connect 100 0 89 0;
#X connect 101 0 93 0;
#X connect 102 0 95 0;
#X connect 103 0 96 0;
#X connect 104 0 91 0;
#X connect 105 0 97 0;
#X connect 106 0 127 0;
#X connect 107 0 126 0;
#X connect 108 0 16 1;
#X connect 109 0 71 1;
#X connect 110 0 72 1;
#X connect 111 0 73 1;
#X connect 112 0 79 1;
#X connect 113 0 121 0;
#X connect 114 0 138 0;
#X connect 115 0 137 0;
#X connect 116 0 90 0;
#X connect 117 0 92 0;
#X connect 118 0 94 0;
#X connect 119 0 6 0;
#X connect 119 1 6 0;
#X connect 120 0 81 1;
#X connect 121 0 87 1;
#X connect 123 0 7 0;
#X connect 124 0 142 0;
#X connect 125 0 120 0;
#X connect 126 0 14 1;
#X connect 127 0 13 1;
#X connect 128 0 108 0;
#X connect 129 0 110 0;
#X connect 130 0 109 0;
#X connect 131 0 132 0;
#X connect 132 0 80 1;
#X connect 133 0 82 1;
#X connect 134 0 133 0;
#X connect 135 0 98 0;
#X connect 135 0 99 0;
#X connect 135 0 100 0;
#X connect 135 0 104 0;
#X connect 135 0 101 0;
#X connect 135 0 102 0;
#X connect 135 0 103 0;
#X connect 135 0 105 0;
#X connect 135 0 116 0;
#X connect 135 0 117 0;
#X connect 135 0 118 0;
#X connect 135 0 119 0;
#X connect 135 0 123 0;
#X connect 136 0 119 0;
#X connect 136 0 123 0;
#X connect 136 0 118 0;
#X connect 136 0 117 0;
#X connect 136 0 116 0;
#X connect 136 0 105 0;
#X connect 136 0 104 0;
#X connect 136 0 103 0;
#X connect 136 0 102 0;
#X connect 136 0 101 0;
#X connect 136 0 100 0;
#X connect 136 0 99 0;
#X connect 136 0 98 0;
#X connect 137 0 15 1;
#X connect 138 0 74 1;
#X connect 139 0 112 0;
#X connect 140 0 0 0;
#X connect 140 0 0 1;
#X connect 141 0 124 0;
#X connect 142 0 140 0;
#X connect 143 0 111 0;
#X connect 144 0 106 0;
#X connect 145 0 107 0;
#X connect 146 0 115 0;
#X connect 147 0 128 0;
#X connect 148 0 130 0;
#X connect 149 0 129 0;
#X connect 150 0 143 0;
#X connect 151 0 114 0;
#X connect 152 0 139 0;
#X connect 153 0 131 0;
#X connect 154 0 125 0;
#X connect 155 0 134 0;
#X connect 156 0 113 0;
